<svg width="179" height="50" viewBox="0 0 179 50" fill="none" xmlns="http://www.w3.org/2000/svg">
<path d="M175.318 21.84C176.982 22.576 177.974 24.832 178.294 28.608C178.294 32.096 176.934 35.296 174.214 38.208L173.638 38.496C172.646 38.176 172.15 37.68 172.15 37.008L174.118 33.84C174.918 32.208 175.318 30.56 175.318 28.896V27.12C175.318 26.32 174.822 25.12 173.83 23.52V23.328C174.054 22.336 174.55 21.84 175.318 21.84Z" fill="black"/>
<path d="M165.077 14.4C167.797 14.624 169.157 15.952 169.157 18.384L169.253 19.008L169.157 26.496C169.157 27.36 169.653 28.528 170.645 30V30.096C170.389 31.024 169.925 31.488 169.253 31.488C167.269 30.656 166.277 28.896 166.277 26.208V25.584L166.133 25.488L166.277 25.296V25.2L166.421 18.576C166.421 17.648 166.021 17.184 165.221 17.184H164.645C163.045 17.824 162.245 21.328 162.245 27.696C162.245 29.904 161.685 31.008 160.565 31.008C159.701 31.008 159.253 30.464 159.221 29.376V24.576C159.221 18.368 159.765 15.264 160.853 15.264L161.333 15.12L162.341 15.264C163.205 14.688 164.117 14.4 165.077 14.4Z" fill="black"/>
<path d="M154.735 5.56801C155.951 5.82401 156.559 6.36801 156.559 7.20001C156.239 8.09601 155.727 8.54401 155.023 8.54401C153.839 8.32001 153.247 7.72801 153.247 6.76801C153.567 5.96801 154.063 5.56801 154.735 5.56801ZM156.559 12.288C157.071 12.288 157.503 12.752 157.855 13.68L157.423 17.088V19.344C157.423 21.968 157.871 25.408 158.767 29.664C158.447 30.272 157.903 30.576 157.135 30.576C155.823 30.576 154.959 26.736 154.543 19.056V17.376C154.543 13.984 155.215 12.288 156.559 12.288Z" fill="black"/>
<path d="M151.52 12.048C152.928 12.048 153.632 12.608 153.632 13.728L153.199 14.64L152.911 23.424C152.911 27.392 153.712 29.856 155.312 30.816L155.408 31.536C155.312 32.464 154.879 32.928 154.111 32.928H153.824C151.424 31.296 150.223 28.8 150.223 25.44H149.887C148.607 29.024 147.056 30.816 145.232 30.816C143.536 30.336 142.688 29.072 142.688 27.024C142.688 22.512 144.495 18.016 148.111 13.536C149.327 12.544 150.464 12.048 151.52 12.048ZM145.712 25.104L145.52 26.448V27.36H145.999C148.399 21.376 149.6 17.728 149.6 16.416H149.408C147.552 18.496 146.32 21.392 145.712 25.104Z" fill="black"/>
<path d="M139.734 12.144C141.206 12.144 141.942 12.848 141.942 14.256C142.134 14.256 142.23 14.496 142.23 14.976H142.422L142.23 16.368L142.422 26.064L142.134 33.744C145.014 33.744 146.95 35.856 147.942 40.08C147.942 40.944 147.35 41.44 146.166 41.568C145.622 41.568 145.014 40.368 144.342 37.968C143.702 37.04 142.966 36.576 142.134 36.576H141.942C140.918 43.392 140.022 46.8 139.254 46.8C138.326 48.496 136.982 49.344 135.222 49.344C132.63 48.736 131.334 47.44 131.334 45.456V45.168C131.334 42.16 133.478 38.896 137.766 35.376L139.254 34.464L139.446 29.28V28.08H139.254C138.166 29.456 137.126 30.144 136.134 30.144H135.846C133.638 30.144 132.374 28.448 132.054 25.056V24C132.054 19.904 133.558 16.352 136.566 13.344C137.494 12.544 138.55 12.144 139.734 12.144ZM134.934 23.376V25.68C135.062 26.736 135.302 27.264 135.654 27.264H136.134C137.03 27.264 138.134 23.968 139.446 17.376V14.976C137.526 14.976 136.022 17.776 134.934 23.376ZM134.166 45.264C134.294 46.064 134.742 46.464 135.51 46.464C137.046 46.464 138.15 43.728 138.822 38.256H138.534C135.622 40.784 134.166 43.12 134.166 45.264Z" fill="black"/>
<path d="M129.366 12.048C130.774 12.048 131.478 12.608 131.478 13.728L131.046 14.64L130.758 23.424C130.758 27.392 131.558 29.856 133.158 30.816L133.254 31.536C133.158 32.464 132.726 32.928 131.958 32.928H131.67C129.27 31.296 128.07 28.8 128.07 25.44H127.734C126.454 29.024 124.902 30.816 123.078 30.816C121.382 30.336 120.534 29.072 120.534 27.024C120.534 22.512 122.342 18.016 125.958 13.536C127.174 12.544 128.31 12.048 129.366 12.048ZM123.558 25.104L123.366 26.448V27.36H123.846C126.246 21.376 127.446 17.728 127.446 16.416H127.254C125.398 18.496 124.166 21.392 123.558 25.104Z" fill="black"/>
<path d="M96.276 13.344C97.556 13.376 99.716 15.616 102.756 20.064L102.852 20.88C102.852 21.776 100.66 22.464 96.276 22.944L96.132 23.088V23.28C96.804 26.16 97.508 27.6 98.244 27.6H98.82C99.844 27.6 101.396 26.496 103.476 24.288H103.764C104.404 24.288 104.9 24.752 105.252 25.68C105.252 26.448 103.908 27.776 101.22 29.664C100.516 30.08 99.668 30.384 98.676 30.576C96.084 30.576 94.276 28.144 93.252 23.28C91.78 23.056 91.044 22.448 91.044 21.456C91.044 20.752 91.588 20.288 92.676 20.064V20.256L93.156 20.064V18.864C93.156 15.184 94.196 13.344 96.276 13.344ZM96.564 16.8H96.132L95.94 18.576V20.064H96.132C97.924 20 98.82 19.808 98.82 19.488C97.988 18.24 97.236 17.344 96.564 16.8Z" fill="black"/>
<path d="M73.8896 13.776C74.1136 12.976 74.6256 12.576 75.4256 12.576C76.2256 12.576 76.7536 13.376 77.0096 14.976H77.2016L79.4096 14.496C80.4336 14.496 81.4256 15.456 82.3856 17.376H82.5776C83.9856 15.168 85.4256 14.064 86.8976 14.064C90.0336 14.64 91.6016 16.688 91.6016 20.208L91.6976 21.888L91.2656 31.584V32.496C91.2656 33.296 90.7696 33.76 89.7776 33.888C88.7856 33.888 88.2896 32.72 88.2896 30.384L88.8656 21.696C88.8656 18.496 88.1136 16.896 86.6096 16.896C85.7456 16.896 84.7056 18.992 83.4896 23.184C82.8816 27.984 82.3856 30.384 82.0016 30.384C81.4576 30.384 81.1856 30.496 81.1856 30.72C80.1936 30.592 79.6976 30.08 79.6976 29.184L80.3216 23.376C80.2256 19.376 79.8256 17.376 79.1216 17.376H78.9776C78.1776 17.984 77.7776 19.184 77.7776 20.976V23.52L77.5856 30.864C77.3616 31.664 76.8656 32.064 76.0976 32.064C75.4256 32.064 74.9936 31.504 74.8016 30.384L74.6096 24.72L74.8976 20.064C74.7056 17.664 74.3696 15.568 73.8896 13.776Z" fill="black"/>
<path d="M48.4294 1.44C49.3254 1.632 49.7734 2.08 49.7734 2.784L49.4854 4.896V5.52C49.4854 6.928 49.6454 8.416 49.9654 9.984H50.0614C53.7734 8.864 56.0774 8.304 56.9734 8.304C57.9014 8.56 58.3654 9.024 58.3654 9.696C58.3654 10.784 57.2614 11.328 55.0534 11.328L50.0614 13.104C50.0614 17.424 50.5254 23.296 51.4534 30.72C51.2614 31.584 50.7974 32.016 50.0614 32.016H49.9654C48.8454 32.016 48.2854 30.576 48.2854 27.696C47.8694 25.552 47.5174 20.896 47.2294 13.728H46.3654C43.3574 13.536 41.8534 12.832 41.8534 11.616C41.8534 11.264 42.1894 10.832 42.8614 10.32H43.3414L45.5494 10.896H47.0854L46.6534 4.896C46.6534 2.592 47.2454 1.44 48.4294 1.44Z" fill="black"/>
<path d="M40.0946 11.136C40.9586 11.136 41.5506 12.592 41.8706 15.504C41.5506 16.304 41.0226 16.704 40.2866 16.704C39.7746 16.608 39.2626 16.016 38.7506 14.928L37.8866 14.64C36.3826 14.64 35.0226 15.632 33.8066 17.616V18.048C33.8066 18.528 36.0626 19.328 40.5746 20.448C42.4626 21.568 43.4066 22.928 43.4066 24.528C43.4066 27.152 41.2946 29.392 37.0706 31.248L35.2946 31.536C32.6066 31.248 31.2626 29.904 31.2626 27.504V27.36C31.2626 26.592 31.7586 26.144 32.7506 26.016C33.5186 26.016 34.0306 26.816 34.2866 28.416L34.6706 28.704H35.4866C37.3106 28.704 39.0066 27.456 40.5746 24.96V24.336C40.5746 23.376 38.4786 22.48 34.2866 21.648C32.0786 20.752 30.9746 19.504 30.9746 17.904C30.9746 15.824 32.7186 13.872 36.2066 12.048C37.7426 11.856 39.0386 11.552 40.0946 11.136Z" fill="black"/>
<path d="M19.0635 16.128L19.9275 15.648C20.6955 15.648 21.2555 16.112 21.6075 17.04C21.0955 19.408 20.8395 21.84 20.8395 24.336C20.8395 25.584 21.2075 26.944 21.9435 28.416H22.2315C23.1595 28.416 24.2635 24.752 25.5435 17.424C25.9915 17.04 26.4235 16.848 26.8395 16.848C27.8315 16.848 28.3275 18.608 28.3275 22.128C28.7435 26 29.2075 27.936 29.7195 27.936L30.4395 27.648C31.3675 28 31.8315 28.496 31.8315 29.136C31.2555 30.352 30.4555 30.96 29.4315 30.96C28.2795 30.96 27.1755 29.808 26.1195 27.504C24.8395 30.192 23.5435 31.536 22.2315 31.536C20.2795 31.536 18.9195 29.504 18.1515 25.44L18.0075 23.904V23.424C18.0075 20.864 18.3595 18.432 19.0635 16.128Z" fill="black"/>
<path d="M13.92 0H14.736C15.728 0.191999 16.224 0.687998 16.224 1.488C16.224 1.712 15.92 2.176 15.312 2.88V5.28C15.312 7.584 15.856 14.576 16.944 26.256C16.944 30.736 15.6 32.976 12.912 32.976C10.672 32.976 7.376 29.84 3.024 23.568C1.616 23.568 0.72 23.072 0.336 22.08L0 20.88C0.288 19.664 0.832 19.056 1.632 19.056C3.424 19.792 6.032 22.64 9.456 27.6C11.152 29.296 12.304 30.144 12.912 30.144H13.2C13.68 29.92 13.92 29.168 13.92 27.888V24.864L12.432 6.864L12.336 3.744C12.336 1.248 12.864 0 13.92 0Z" fill="black"/>
</svg>
