<svg width="238" height="66" viewBox="0 0 238 66" fill="none" xmlns="http://www.w3.org/2000/svg">
<path d="M233.757 29.1201C235.976 30.1015 237.299 33.1095 237.725 38.1441C237.725 42.7948 235.912 47.0615 232.285 50.9441L231.517 51.3281C230.195 50.9015 229.533 50.2401 229.533 49.3441L232.157 45.1201C233.224 42.9441 233.757 40.7468 233.757 38.5281V36.1601C233.757 35.0935 233.096 33.4935 231.773 31.3601V31.1041C232.072 29.7815 232.733 29.1201 233.757 29.1201Z" fill="black"/>
<path d="M220.104 19.2C223.731 19.4986 225.544 21.2693 225.544 24.512L225.672 25.344L225.544 35.328C225.544 36.48 226.205 38.0373 227.528 40V40.128C227.187 41.3653 226.568 41.984 225.672 41.984C223.027 40.8746 221.704 38.528 221.704 34.944V34.112L221.512 33.984L221.704 33.728V33.6L221.896 24.768C221.896 23.5306 221.363 22.9119 220.296 22.9119H219.528C217.395 23.7653 216.328 28.4373 216.328 36.928C216.328 39.872 215.581 41.3439 214.088 41.3439C212.936 41.3439 212.339 40.6186 212.296 39.168V32.768C212.296 24.4906 213.021 20.352 214.472 20.352L215.112 20.16L216.456 20.352C217.608 19.584 218.824 19.2 220.104 19.2Z" fill="black"/>
<path d="M208.746 16.384C209.428 16.384 210.004 17.0027 210.474 18.24L209.898 22.784V25.792C209.898 29.2907 210.495 33.8774 211.69 39.552C211.263 40.3627 210.538 40.768 209.514 40.768C207.764 40.768 206.612 35.648 206.058 25.408V23.168C206.058 18.6454 206.954 16.384 208.746 16.384Z" fill="black"/>
<path d="M210.135 9.75C209.246 9.75 208.746 10.5834 208.746 11C208.746 10.5834 208.246 9.75 207.357 9.75C206.468 9.75 206.246 10.5834 206.246 11C206.246 13.1875 208.746 14.75 208.746 14.75C208.746 14.75 211.246 13.1875 211.246 11C211.246 10.5834 211.023 9.75 210.135 9.75Z" fill="black"/>
<path d="M202.026 16.064C203.903 16.064 204.842 16.8106 204.842 18.304L204.266 19.52L203.882 31.232C203.882 36.5226 204.949 39.808 207.082 41.088L207.21 42.048C207.082 43.2853 206.506 43.904 205.482 43.904H205.098C201.898 41.728 200.298 38.4 200.298 33.92H199.85C198.143 38.6986 196.074 41.088 193.642 41.088C191.381 40.448 190.25 38.7626 190.25 36.032C190.25 30.016 192.661 24.0213 197.482 18.048C199.103 16.7253 200.618 16.064 202.026 16.064ZM194.282 33.472L194.026 35.264V36.48H194.666C197.866 28.5013 199.466 23.6373 199.466 21.888H199.21C196.735 24.6613 195.093 28.5226 194.282 33.472Z" fill="black"/>
<path d="M186.312 16.1921C188.275 16.1921 189.256 17.1308 189.256 19.0081C189.512 19.0081 189.64 19.3281 189.64 19.9681H189.896L189.64 21.8241L189.896 34.7521L189.512 44.9921C193.352 44.9921 195.934 47.8081 197.256 53.4401C197.256 54.5921 196.467 55.2535 194.888 55.4241C194.163 55.4241 193.352 53.8241 192.456 50.6241C191.603 49.3868 190.622 48.7681 189.512 48.7681H189.256C187.891 57.8561 186.696 62.4001 185.672 62.4001C184.435 64.6615 182.643 65.7921 180.296 65.7921C176.84 64.9815 175.112 63.2535 175.112 60.6081V60.2241C175.112 56.2135 177.971 51.8615 183.688 47.1681L185.672 45.9521L185.928 39.0401V37.4401H185.672C184.222 39.2748 182.835 40.1921 181.512 40.1921H181.128C178.184 40.1921 176.499 37.9308 176.072 33.4081V32.0001C176.072 26.5388 178.078 21.8028 182.088 17.7921C183.326 16.7255 184.734 16.1921 186.312 16.1921ZM179.912 31.1681V34.2401C180.083 35.6481 180.403 36.3521 180.872 36.3521H181.512C182.707 36.3521 184.179 31.9575 185.928 23.1681V19.9681C183.368 19.9681 181.363 23.7015 179.912 31.1681ZM178.888 60.3521C179.059 61.4188 179.656 61.9521 180.68 61.9521C182.728 61.9521 184.2 58.3041 185.096 51.0081H184.712C180.83 54.3788 178.888 57.4935 178.888 60.3521Z" fill="black"/>
<path d="M172.489 16.064C174.366 16.064 175.305 16.8106 175.305 18.304L174.729 19.52L174.345 31.232C174.345 36.5226 175.412 39.808 177.545 41.088L177.673 42.048C177.545 43.2853 176.969 43.904 175.945 43.904H175.561C172.361 41.728 170.761 38.4 170.761 33.92H170.313C168.606 38.6986 166.537 41.088 164.105 41.088C161.844 40.448 160.713 38.7626 160.713 36.032C160.713 30.016 163.124 24.0213 167.945 18.048C169.566 16.7253 171.081 16.064 172.489 16.064ZM164.745 33.472L164.489 35.264V36.48H165.129C168.329 28.5013 169.929 23.6373 169.929 21.888H169.673C167.198 24.6613 165.556 28.5226 164.745 33.472Z" fill="black"/>
<path d="M128.369 17.792C130.075 17.8347 132.955 20.8213 137.009 26.752L137.137 27.84C137.137 29.0347 134.214 29.952 128.369 30.592L128.177 30.784V31.04C129.073 34.88 130.011 36.8 130.993 36.8H131.761C133.126 36.8 135.195 35.328 137.969 32.384H138.353C139.206 32.384 139.867 33.0027 140.337 34.24C140.337 35.264 138.545 37.0347 134.961 39.552C134.022 40.1067 132.891 40.512 131.569 40.768C128.113 40.768 125.702 37.5253 124.337 31.04C122.374 30.7413 121.393 29.9307 121.393 28.608C121.393 27.6693 122.118 27.0507 123.569 26.752V27.008L124.209 26.752V25.152C124.209 20.2453 125.595 17.792 128.369 17.792ZM128.753 22.4H128.177L127.921 24.768V26.752H128.177C130.566 26.6667 131.761 26.4107 131.761 25.984C130.651 24.32 129.649 23.1253 128.753 22.4Z" fill="black"/>
<path d="M98.5195 18.3681C98.8182 17.3014 99.5009 16.7681 100.568 16.7681C101.634 16.7681 102.338 17.8347 102.68 19.9681H102.936L105.88 19.3281C107.245 19.3281 108.568 20.6081 109.848 23.1681H110.104C111.981 20.2241 113.901 18.7521 115.864 18.7521C120.045 19.5201 122.136 22.2507 122.136 26.9441L122.264 29.1841L121.688 42.1121V43.3281C121.688 44.3947 121.026 45.0134 119.704 45.1841C118.381 45.1841 117.72 43.6267 117.72 40.5121L118.488 28.9281C118.488 24.6614 117.485 22.5281 115.48 22.5281C114.328 22.5281 112.941 25.3227 111.32 30.9121C110.509 37.3121 109.848 40.5121 109.336 40.5121C108.61 40.5121 108.248 40.6614 108.248 40.9601C106.925 40.7894 106.264 40.1067 106.264 38.9121L107.096 31.1681C106.968 25.8347 106.434 23.1681 105.496 23.1681H105.304C104.237 23.9787 103.704 25.5787 103.704 27.9681V31.3601L103.448 41.1521C103.149 42.2187 102.488 42.7521 101.464 42.7521C100.568 42.7521 99.9915 42.0054 99.7355 40.5121L99.4795 32.9601L99.8635 26.7521C99.6075 23.5521 99.1595 20.7574 98.5195 18.3681Z" fill="black"/>
<path d="M64.5727 1.92017C65.7674 2.17617 66.3647 2.7735 66.3647 3.71217L65.9807 6.52817V7.36017C65.9807 9.2375 66.194 11.2215 66.6207 13.3122H66.7487C71.698 11.8188 74.77 11.0722 75.9647 11.0722C77.202 11.4135 77.8207 12.0322 77.8207 12.9282C77.8207 14.3788 76.3487 15.1042 73.4047 15.1042L66.7487 17.4722C66.7487 23.2322 67.3674 31.0615 68.6047 40.9602C68.3487 42.1122 67.73 42.6882 66.7487 42.6882H66.6207C65.1274 42.6882 64.3807 40.7682 64.3807 36.9282C63.826 34.0695 63.3567 27.8615 62.9727 18.3042H61.8207C57.81 18.0482 55.8047 17.1095 55.8047 15.4882C55.8047 15.0188 56.2527 14.4428 57.1487 13.7602H57.7887L60.7327 14.5282H62.7807L62.2047 6.52817C62.2047 3.45617 62.994 1.92017 64.5727 1.92017Z" fill="black"/>
<path d="M53.4598 14.8481C54.6118 14.8481 55.4011 16.7895 55.8278 20.6721C55.4011 21.7388 54.6971 22.2721 53.7158 22.2721C53.0331 22.1441 52.3505 21.3548 51.6678 19.9041L50.5158 19.5201C48.5105 19.5201 46.6971 20.8428 45.0758 23.4881V24.0641C45.0758 24.7041 48.0838 25.7708 54.0998 27.2641C56.6171 28.7575 57.8758 30.5708 57.8758 32.7041C57.8758 36.2028 55.0598 39.1895 49.4278 41.6642L47.0598 42.0481C43.4758 41.6641 41.6838 39.8721 41.6838 36.6721V36.4801C41.6838 35.4561 42.3451 34.8588 43.6678 34.6881C44.6918 34.6881 45.3745 35.7548 45.7158 37.8881L46.2278 38.2721H47.3158C49.7478 38.2721 52.0091 36.6081 54.0998 33.2801V32.4481C54.0998 31.1681 51.3051 29.9735 45.7158 28.8641C42.7718 27.6695 41.2998 26.0055 41.2998 23.8721C41.2998 21.0988 43.6251 18.4961 48.2758 16.0641C50.3238 15.8081 52.0518 15.4028 53.4598 14.8481Z" fill="black"/>
<path d="M25.4187 21.504L26.5707 20.864C27.5947 20.864 28.3414 21.4827 28.8107 22.72C28.1281 25.8773 27.7867 29.12 27.7867 32.448C27.7867 34.112 28.2774 35.9253 29.2587 37.888H29.6427C30.8801 37.888 32.3521 33.0027 34.0587 23.232C34.6561 22.72 35.2321 22.464 35.7867 22.464C37.1094 22.464 37.7707 24.8107 37.7707 29.504C38.3254 34.6667 38.9441 37.248 39.6267 37.248L40.5867 36.864C41.8241 37.3333 42.4427 37.9947 42.4427 38.848C41.6747 40.4693 40.6081 41.28 39.2427 41.28C37.7067 41.28 36.2347 39.744 34.8267 36.672C33.1201 40.256 31.3921 42.048 29.6427 42.048C27.0401 42.048 25.2267 39.3387 24.2027 33.92L24.0107 31.872V31.232C24.0107 27.8187 24.4801 24.576 25.4187 21.504Z" fill="black"/>
<path d="M18.56 0H19.648C20.9707 0.255999 21.632 0.917333 21.632 1.984C21.632 2.28267 21.2267 2.90133 20.416 3.84V7.04C20.416 10.112 21.1413 19.4347 22.592 35.008C22.592 40.9813 20.8 43.968 17.216 43.968C14.2293 43.968 9.83467 39.7867 4.032 31.424C2.15467 31.424 0.96 30.7627 0.448 29.44L0 27.84C0.384 26.2187 1.10933 25.408 2.176 25.408C4.56533 26.3893 8.04266 30.1867 12.608 36.8C14.8693 39.0613 16.4053 40.192 17.216 40.192H17.6C18.24 39.8933 18.56 38.8907 18.56 37.184V33.152L16.576 9.152L16.448 4.992C16.448 1.664 17.152 0 18.56 0Z" fill="black"/>
</svg>
